<svg xmlns="http://www.w3.org/2000/svg" viewBox="0 0 200 200">
  <defs>
    <linearGradient id="body" x1="0.15" y1="0" x2="0.85" y2="1">
      <stop offset="0%"   stop-color="#555"/>
      <stop offset="50%"  stop-color="#1E1E1E"/>
      <stop offset="100%" stop-color="#111"/>
    </linearGradient>
    <radialGradient id="grille" cx="36%" cy="30%" r="58%">
      <stop offset="0%"   stop-color="#787878"/>
      <stop offset="100%" stop-color="#1C1C1C"/>
    </radialGradient>
    <linearGradient id="band" x1="0" y1="0" x2="1" y2="0">
      <stop offset="0%"   stop-color="#666"/>
      <stop offset="50%"  stop-color="#C8C8C8"/>
      <stop offset="100%" stop-color="#666"/>
    </linearGradient>
  </defs>
  <ellipse cx="100" cy="194" rx="20" ry="5" fill="#00000030"/>
  <!-- Handle bottom -->
  <rect x="82" y="168" width="32" height="22" rx="8" fill="#222"/>
  <!-- Handle body -->
  <rect x="78" y="100" width="44" height="72" rx="10" fill="url(#body)"/>
  <!-- Transmitter bump / electronics area -->
  <rect x="76" y="130" width="10" height="30" rx="4" fill="#1A1A1A"/>
  <rect x="114" y="130" width="10" height="30" rx="4" fill="#1A1A1A"/>
  <!-- LED indicator -->
  <circle cx="90" cy="108" r="3.5" fill="#22EE44"/>
  <circle cx="90" cy="108" r="2" fill="#88FF99"/>
  <!-- Antenna -->
  <line x1="142" y1="155" x2="168" y2="96" stroke="#555" stroke-width="3" stroke-linecap="round"/>
  <line x1="142" y1="155" x2="168" y2="96" stroke="#999" stroke-width="1.5" stroke-linecap="round" opacity="0.6"/>
  <circle cx="142" cy="155" r="5" fill="#333"/>
  <!-- Silver band -->
  <rect x="74" y="94" width="52" height="12" rx="4" fill="url(#band)"/>
  <!-- Capsule head (same as SM58) -->
  <path d="M 75 100 Q 74 60 74 50 Q 76 18 100 14 Q 124 18 126 50 Q 126 60 125 100 Z" fill="url(#grille)"/>
  <path d="M 77 90 Q 100 87 123 90" stroke="#3A3A3A" stroke-width="1.2" fill="none" opacity="0.7"/>
  <path d="M 76 80 Q 100 77 124 80" stroke="#3A3A3A" stroke-width="1.2" fill="none" opacity="0.7"/>
  <path d="M 78 70 Q 100 67 122 70" stroke="#3A3A3A" stroke-width="1.2" fill="none" opacity="0.6"/>
  <path d="M 82 60 Q 100 57 118 60" stroke="#3A3A3A" stroke-width="1.2" fill="none" opacity="0.6"/>
  <path d="M 87 50 Q 100 47 113 50" stroke="#3A3A3A" stroke-width="1.2" fill="none" opacity="0.5"/>
  <path d="M 80 75 Q 82 52 90 34" stroke="#C0C0C0" stroke-width="3" fill="none" opacity="0.18" stroke-linecap="round"/>
</svg>
