<svg xmlns="http://www.w3.org/2000/svg" viewBox="0 0 320 240">
<defs>
  <linearGradient id="s" x1="0" y1="0" x2="0" y2="1">
    <stop offset="0" stop-color="#3C2618"/>
    <stop offset="1" stop-color="#1C1008"/>
  </linearGradient>
  <linearGradient id="c" x1="0" y1="0" x2="1" y2="0">
    <stop offset="0" stop-color="#7A6018"/>
    <stop offset=".5" stop-color="#B89230"/>
    <stop offset="1" stop-color="#7A6018"/>
  </linearGradient>
</defs>
<ellipse cx="155" cy="233" rx="136" ry="7" fill="#000" opacity="0.22"/>
<line x1="50" y1="72" x2="38" y2="145" stroke="#706050" stroke-width="1.5"/>
<line x1="50" y1="72" x2="62" y2="145" stroke="#706050" stroke-width="1.5"/>
<line x1="252" y1="92" x2="240" y2="152" stroke="#706050" stroke-width="1.5"/>
<line x1="18" y1="124" x2="18" y2="220" stroke="#706050" stroke-width="1.5"/>
<line x1="18" y1="220" x2="5" y2="232" stroke="#706050" stroke-width="1.5"/>
<line x1="18" y1="220" x2="31" y2="232" stroke="#706050" stroke-width="1.5"/>
<line x1="100" y1="200" x2="88" y2="228" stroke="#706050" stroke-width="2"/>
<line x1="212" y1="200" x2="224" y2="228" stroke="#706050" stroke-width="2"/>
<line x1="228" y1="182" x2="218" y2="218" stroke="#706050" stroke-width="1.5"/>
<line x1="272" y1="182" x2="282" y2="218" stroke="#706050" stroke-width="1.5"/>
<line x1="64" y1="168" x2="56" y2="212" stroke="#706050" stroke-width="1.5"/>
<line x1="56" y1="212" x2="42" y2="228" stroke="#706050" stroke-width="1.5"/>
<line x1="56" y1="212" x2="70" y2="228" stroke="#706050" stroke-width="1.5"/>
<path d="M94,162 L94,200 A62,14 0 0,0 218,200 L218,162 A62,14 0 0,1 94,162 Z" fill="url(#s)"/>
<ellipse cx="156" cy="162" rx="62" ry="14" fill="#3C2618" opacity="0.7"/>
<ellipse cx="156" cy="200" rx="62" ry="14" fill="#241808"/>
<ellipse cx="156" cy="200" rx="62" ry="14" fill="none" stroke="#887020" stroke-width="2.5"/>
<ellipse cx="156" cy="200" rx="50" ry="11" fill="none" stroke="#3C2A18" stroke-width="1" opacity="0.5"/>
<ellipse cx="156" cy="200" rx="17" ry="5" fill="#140C04" opacity="0.7"/>
<rect x="97" y="165" width="5" height="10" rx="1.5" fill="#907828"/>
<rect x="97" y="181" width="5" height="10" rx="1.5" fill="#907828"/>
<rect x="210" y="165" width="5" height="10" rx="1.5" fill="#907828"/>
<rect x="210" y="181" width="5" height="10" rx="1.5" fill="#907828"/>
<path d="M220,148 L220,182 A30,6.5 0 0,0 280,182 L280,148 A30,6.5 0 0,1 220,148 Z" fill="url(#s)"/>
<ellipse cx="250" cy="148" rx="30" ry="6.5" fill="#3C2618" opacity="0.7"/>
<ellipse cx="250" cy="182" rx="30" ry="6.5" fill="#241808"/>
<ellipse cx="250" cy="182" rx="30" ry="6.5" fill="none" stroke="#887020" stroke-width="2.5"/>
<rect x="226" y="152" width="5" height="8" rx="1" fill="#907828"/>
<rect x="268" y="152" width="5" height="8" rx="1" fill="#907828"/>
<path d="M36,146 L36,165 A28,6 0 0,0 92,165 L92,146 A28,6 0 0,1 36,146 Z" fill="url(#s)"/>
<ellipse cx="64" cy="146" rx="28" ry="6" fill="#3C2618" opacity="0.7"/>
<ellipse cx="64" cy="165" rx="28" ry="6" fill="#DCDCDC"/>
<ellipse cx="64" cy="165" rx="28" ry="6" fill="none" stroke="#887020" stroke-width="2.5"/>
<ellipse cx="64" cy="165" rx="20" ry="4" fill="#CACACA" opacity="0.55"/>
<line x1="43" y1="169" x2="85" y2="169" stroke="#A0A090" stroke-width="0.9"/>
<line x1="43" y1="171.5" x2="85" y2="171.5" stroke="#A0A090" stroke-width="0.9"/>
<ellipse cx="18" cy="112" rx="22" ry="4" fill="url(#c)"/>
<ellipse cx="18" cy="118" rx="22" ry="4" fill="url(#c)"/>
<ellipse cx="18" cy="118" rx="22" ry="4" fill="none" stroke="#7A6018" stroke-width="0.8"/>
<g transform="rotate(-10,50,66)">
  <ellipse cx="50" cy="66" rx="36" ry="6" fill="url(#c)"/>
  <ellipse cx="50" cy="66" rx="36" ry="6" fill="none" stroke="#7A6018" stroke-width="0.8"/>
  <ellipse cx="50" cy="64" rx="7" ry="2.5" fill="#6A5018"/>
</g>
<g transform="rotate(8,252,82)">
  <ellipse cx="252" cy="82" rx="44" ry="7.5" fill="url(#c)"/>
  <ellipse cx="252" cy="82" rx="44" ry="7.5" fill="none" stroke="#7A6018" stroke-width="0.8"/>
  <ellipse cx="252" cy="80" rx="9" ry="3.5" fill="#6A5018"/>
</g>
</svg>
