<svg xmlns="http://www.w3.org/2000/svg" viewBox="0 0 320 240">
<defs>
  <linearGradient id="s" x1="0" y1="0" x2="0" y2="1">
    <stop offset="0" stop-color="#3A3A3A"/>
    <stop offset="1" stop-color="#1A1A1A"/>
  </linearGradient>
  <linearGradient id="c" x1="0" y1="0" x2="1" y2="0">
    <stop offset="0" stop-color="#907818"/>
    <stop offset=".5" stop-color="#C8A832"/>
    <stop offset="1" stop-color="#907818"/>
  </linearGradient>
</defs>
<ellipse cx="160" cy="233" rx="144" ry="7" fill="#000" opacity="0.25"/>
<line x1="52" y1="66" x2="40" y2="140" stroke="#666" stroke-width="1.5"/>
<line x1="52" y1="66" x2="64" y2="140" stroke="#666" stroke-width="1.5"/>
<line x1="267" y1="84" x2="255" y2="148" stroke="#666" stroke-width="1.5"/>
<line x1="18" y1="119" x2="18" y2="220" stroke="#666" stroke-width="1.5"/>
<line x1="18" y1="220" x2="5" y2="232" stroke="#666" stroke-width="1.5"/>
<line x1="18" y1="220" x2="31" y2="232" stroke="#666" stroke-width="1.5"/>
<line x1="96" y1="198" x2="84" y2="228" stroke="#666" stroke-width="2"/>
<line x1="220" y1="198" x2="232" y2="228" stroke="#666" stroke-width="2"/>
<line x1="238" y1="186" x2="228" y2="222" stroke="#666" stroke-width="1.5"/>
<line x1="286" y1="186" x2="296" y2="222" stroke="#666" stroke-width="1.5"/>
<line x1="64" y1="166" x2="56" y2="212" stroke="#666" stroke-width="1.5"/>
<line x1="56" y1="212" x2="42" y2="228" stroke="#666" stroke-width="1.5"/>
<line x1="56" y1="212" x2="70" y2="228" stroke="#666" stroke-width="1.5"/>
<rect x="84" y="90" width="3.5" height="42" rx="1.5" fill="#707070"/>
<rect x="158" y="86" width="3.5" height="42" rx="1.5" fill="#707070"/>
<rect x="82" y="88" width="84" height="3.5" rx="1.5" fill="#707070"/>
<path d="M84,160 L84,196 A74,16 0 0,0 232,196 L232,160 A74,16 0 0,1 84,160 Z" fill="url(#s)"/>
<ellipse cx="158" cy="160" rx="74" ry="16" fill="#3A3A3A" opacity="0.7"/>
<ellipse cx="158" cy="196" rx="74" ry="16" fill="#242424"/>
<ellipse cx="158" cy="196" rx="74" ry="16" fill="none" stroke="#AFAFAF" stroke-width="3"/>
<ellipse cx="158" cy="196" rx="61" ry="13" fill="none" stroke="#404040" stroke-width="1" opacity="0.7"/>
<ellipse cx="158" cy="196" rx="20" ry="5.5" fill="#101010" opacity="0.8"/>
<rect x="87" y="163" width="6" height="11" rx="1.5" fill="#B0B0B0"/>
<rect x="87" y="180" width="6" height="11" rx="1.5" fill="#B0B0B0"/>
<rect x="227" y="163" width="6" height="11" rx="1.5" fill="#B0B0B0"/>
<rect x="227" y="180" width="6" height="11" rx="1.5" fill="#B0B0B0"/>
<path d="M228,145 L228,184 A34,7.5 0 0,0 296,184 L296,145 A34,7.5 0 0,1 228,145 Z" fill="url(#s)"/>
<ellipse cx="262" cy="145" rx="34" ry="7.5" fill="#3A3A3A" opacity="0.7"/>
<ellipse cx="262" cy="184" rx="34" ry="7.5" fill="#242424"/>
<ellipse cx="262" cy="184" rx="34" ry="7.5" fill="none" stroke="#AFAFAF" stroke-width="2.5"/>
<rect x="234" y="149" width="5" height="9" rx="1" fill="#B0B0B0"/>
<rect x="284" y="149" width="5" height="9" rx="1" fill="#B0B0B0"/>
<path d="M85,105 L85,129 A27,6 0 0,0 139,129 L139,105 A27,6 0 0,1 85,105 Z" fill="url(#s)"/>
<ellipse cx="112" cy="105" rx="27" ry="6" fill="#3A3A3A" opacity="0.7"/>
<ellipse cx="112" cy="129" rx="27" ry="6" fill="#242424"/>
<ellipse cx="112" cy="129" rx="27" ry="6" fill="none" stroke="#AFAFAF" stroke-width="2.5"/>
<rect x="88" y="109" width="5" height="8" rx="1" fill="#B0B0B0"/>
<rect x="131" y="109" width="5" height="8" rx="1" fill="#B0B0B0"/>
<path d="M136,100 L136,126 A30,6.5 0 0,0 196,126 L196,100 A30,6.5 0 0,1 136,100 Z" fill="url(#s)"/>
<ellipse cx="166" cy="100" rx="30" ry="6.5" fill="#3A3A3A" opacity="0.7"/>
<ellipse cx="166" cy="126" rx="30" ry="6.5" fill="#242424"/>
<ellipse cx="166" cy="126" rx="30" ry="6.5" fill="none" stroke="#AFAFAF" stroke-width="2.5"/>
<rect x="140" y="104" width="5" height="8" rx="1" fill="#B0B0B0"/>
<rect x="185" y="104" width="5" height="8" rx="1" fill="#B0B0B0"/>
<path d="M36,144 L36,164 A28,6 0 0,0 92,164 L92,144 A28,6 0 0,1 36,144 Z" fill="url(#s)"/>
<ellipse cx="64" cy="144" rx="28" ry="6" fill="#3A3A3A" opacity="0.7"/>
<ellipse cx="64" cy="164" rx="28" ry="6" fill="#DEDEDE"/>
<ellipse cx="64" cy="164" rx="28" ry="6" fill="none" stroke="#AFAFAF" stroke-width="2.5"/>
<ellipse cx="64" cy="164" rx="20" ry="4" fill="#C8C8C8" opacity="0.5"/>
<line x1="43" y1="168" x2="85" y2="168" stroke="#B4B4B4" stroke-width="0.9"/>
<line x1="43" y1="170.5" x2="85" y2="170.5" stroke="#B4B4B4" stroke-width="0.9"/>
<ellipse cx="18" cy="107" rx="26" ry="4.5" fill="url(#c)"/>
<ellipse cx="18" cy="113" rx="26" ry="4.5" fill="url(#c)"/>
<ellipse cx="18" cy="113" rx="26" ry="4.5" fill="none" stroke="#907818" stroke-width="0.8"/>
<g transform="rotate(-10,52,58)">
  <ellipse cx="52" cy="58" rx="42" ry="7" fill="url(#c)"/>
  <ellipse cx="52" cy="58" rx="42" ry="7" fill="none" stroke="#907818" stroke-width="0.8"/>
  <ellipse cx="52" cy="56" rx="8" ry="3" fill="#806818"/>
</g>
<g transform="rotate(8,267,73)">
  <ellipse cx="267" cy="73" rx="50" ry="8" fill="url(#c)"/>
  <ellipse cx="267" cy="73" rx="50" ry="8" fill="none" stroke="#907818" stroke-width="0.8"/>
  <ellipse cx="267" cy="71" rx="10" ry="4" fill="#806818"/>
</g>
</svg>
