<svg xmlns="http://www.w3.org/2000/svg" viewBox="0 0 200 200">
  <defs>
    <linearGradient id="cab" x1="0.1" y1="0" x2="0.9" y2="1">
      <stop offset="0%"   stop-color="#2A2E28"/>
      <stop offset="100%" stop-color="#0A0C08"/>
    </linearGradient>
    <radialGradient id="cone" cx="42%" cy="38%" r="58%">
      <stop offset="0%"   stop-color="#484C40"/>
      <stop offset="60%"  stop-color="#20281C"/>
      <stop offset="100%" stop-color="#0C100A"/>
    </radialGradient>
  </defs>
  <ellipse cx="100" cy="194" rx="80" ry="6" fill="#00000030"/>
  <!-- Sub cab body -->
  <rect x="22" y="72" width="156" height="118" rx="8" fill="url(#cab)"/>
  <rect x="22"  y="72"  width="14" height="14" rx="3" fill="#444" opacity="0.7"/>
  <rect x="164" y="72"  width="14" height="14" rx="3" fill="#444" opacity="0.7"/>
  <rect x="22"  y="176" width="14" height="14" rx="3" fill="#444" opacity="0.7"/>
  <rect x="164" y="176" width="14" height="14" rx="3" fill="#444" opacity="0.7"/>
  <!-- Handle -->
  <path d="M 78 72 Q 78 62 100 62 Q 122 62 122 72" fill="none" stroke="#555" stroke-width="6" stroke-linecap="round"/>
  <!-- Grille -->
  <rect x="28" y="78" width="144" height="112" rx="4" fill="#14180E"/>
  <!-- 18" sub driver -->
  <circle cx="100" cy="134" r="62" fill="url(#cone)"/>
  <circle cx="100" cy="134" r="50" fill="none" stroke="#181E14" stroke-width="3" opacity="0.5"/>
  <circle cx="100" cy="134" r="38" fill="none" stroke="#181E14" stroke-width="3" opacity="0.5"/>
  <circle cx="100" cy="134" r="26" fill="none" stroke="#181E14" stroke-width="3" opacity="0.5"/>
  <circle cx="100" cy="134" r="20" fill="#181E14"/>
  <circle cx="95"  cy="129" r="7"  fill="#888" opacity="0.15"/>
  <!-- Port duct -->
  <rect x="50" y="178" width="100" height="10" rx="4" fill="#0A0E08"/>
</svg>
