<svg xmlns="http://www.w3.org/2000/svg" viewBox="0 0 200 200">
  <defs>
    <linearGradient id="case" x1="0.1" y1="0" x2="0.9" y2="1">
      <stop offset="0%"   stop-color="#2A2A2A"/>
      <stop offset="100%" stop-color="#0A0A0A"/>
    </linearGradient>
    <linearGradient id="unit" x1="0" y1="0" x2="0" y2="1">
      <stop offset="0%"   stop-color="#383838"/>
      <stop offset="100%" stop-color="#181818"/>
    </linearGradient>
    <linearGradient id="rev" x1="0" y1="0" x2="0" y2="1">
      <stop offset="0%"   stop-color="#2A2A48"/>
      <stop offset="100%" stop-color="#0A0A20"/>
    </linearGradient>
    <linearGradient id="comp" x1="0" y1="0" x2="0" y2="1">
      <stop offset="0%"   stop-color="#483828"/>
      <stop offset="100%" stop-color="#201808"/>
    </linearGradient>
  </defs>
  <ellipse cx="100" cy="193" rx="88" ry="7" fill="#00000028"/>
  <rect x="8" y="18" width="184" height="172" rx="8" fill="url(#case)"/>
  <!-- Rack ears -->
  <rect x="8"   y="18" width="20" height="172" rx="4" fill="#1E1E1E"/>
  <rect x="172" y="18" width="20" height="172" rx="4" fill="#1E1E1E"/>
  <circle cx="18" cy="34"  r="5" fill="#2A2A2A"/><circle cx="18" cy="34"  r="3" fill="#444"/>
  <circle cx="18" cy="174" r="5" fill="#2A2A2A"/><circle cx="18" cy="174" r="3" fill="#444"/>
  <circle cx="182" cy="34"  r="5" fill="#2A2A2A"/><circle cx="182" cy="34"  r="3" fill="#444"/>
  <circle cx="182" cy="174" r="5" fill="#2A2A2A"/><circle cx="182" cy="174" r="3" fill="#444"/>
  <!-- Unit 1 — Compressor -->
  <rect x="30" y="24" width="140" height="26" rx="3" fill="url(#comp)"/>
  <text x="55" y="35" font-family="Arial, sans-serif" font-size="7" fill="#E0A060" opacity="0.9">COMPRESSOR</text>
  <rect x="30" y="40" width="28" height="6" rx="2" fill="#111"/>
  <rect x="30" y="40" width="18" height="6" rx="2" fill="#CC8820" opacity="0.9"/>
  <circle cx="136" cy="31" r="6" fill="#201808"/><circle cx="136" cy="31" r="4" fill="#603820"/>
  <circle cx="150" cy="31" r="6" fill="#201808"/><circle cx="150" cy="31" r="4" fill="#603820"/>
  <circle cx="162" cy="31" r="4" fill="#00CC44"/>
  <!-- Unit 2 — Reverb -->
  <rect x="30" y="54" width="140" height="26" rx="3" fill="url(#rev)"/>
  <text x="55" y="65" font-family="Arial, sans-serif" font-size="7" fill="#8080EE" opacity="0.9">REVERB/DELAY</text>
  <rect x="30" y="70" width="60" height="6" rx="2" fill="#111"/>
  <rect x="30" y="70" width="42" height="6" rx="2" fill="#4444CC" opacity="0.9"/>
  <circle cx="136" cy="61" r="6" fill="#0A0A20"/><circle cx="136" cy="61" r="4" fill="#303070"/>
  <circle cx="150" cy="61" r="6" fill="#0A0A20"/><circle cx="150" cy="61" r="4" fill="#303070"/>
  <circle cx="162" cy="61" r="4" fill="#00AAFF"/>
  <!-- Unit 3 — EQ -->
  <rect x="30" y="84" width="140" height="30" rx="3" fill="url(#unit)"/>
  <text x="55" y="95" font-family="Arial, sans-serif" font-size="7" fill="#AAA" opacity="0.9">GRAPHIC EQ</text>
  <!-- Mini faders for EQ -->
  <line x1="36"  y1="96" x2="36"  y2="110" stroke="#333" stroke-width="2.5" stroke-linecap="round"/>
  <rect x="34"  y="100" width="4" height="6" rx="1" fill="#888"/>
  <line x1="44"  y1="96" x2="44"  y2="110" stroke="#333" stroke-width="2.5" stroke-linecap="round"/>
  <rect x="42"  y="98"  width="4" height="6" rx="1" fill="#888"/>
  <line x1="52"  y1="96" x2="52"  y2="110" stroke="#333" stroke-width="2.5" stroke-linecap="round"/>
  <rect x="50"  y="104" width="4" height="6" rx="1" fill="#888"/>
  <line x1="60"  y1="96" x2="60"  y2="110" stroke="#333" stroke-width="2.5" stroke-linecap="round"/>
  <rect x="58"  y="101" width="4" height="6" rx="1" fill="#888"/>
  <line x1="68"  y1="96" x2="68"  y2="110" stroke="#333" stroke-width="2.5" stroke-linecap="round"/>
  <rect x="66"  y="97"  width="4" height="6" rx="1" fill="#888"/>
  <line x1="76"  y1="96" x2="76"  y2="110" stroke="#333" stroke-width="2.5" stroke-linecap="round"/>
  <rect x="74"  y="103" width="4" height="6" rx="1" fill="#888"/>
  <line x1="84"  y1="96" x2="84"  y2="110" stroke="#333" stroke-width="2.5" stroke-linecap="round"/>
  <rect x="82"  y="99"  width="4" height="6" rx="1" fill="#888"/>
  <line x1="92"  y1="96" x2="92"  y2="110" stroke="#333" stroke-width="2.5" stroke-linecap="round"/>
  <rect x="90"  y="105" width="4" height="6" rx="1" fill="#888"/>
  <line x1="100" y1="96" x2="100" y2="110" stroke="#333" stroke-width="2.5" stroke-linecap="round"/>
  <rect x="98"  y="97"  width="4" height="6" rx="1" fill="#888"/>
  <!-- Unit 4 — Gate -->
  <rect x="30" y="118" width="140" height="26" rx="3" fill="url(#unit)"/>
  <text x="55" y="129" font-family="Arial, sans-serif" font-size="7" fill="#AAA" opacity="0.9">NOISE GATE</text>
  <rect x="30" y="134" width="60" height="6" rx="2" fill="#111"/>
  <rect x="30" y="134" width="8"  height="6" rx="2" fill="#22BB22" opacity="0.5"/>
  <circle cx="150" cy="125" r="6" fill="#1A1A1A"/><circle cx="150" cy="125" r="4" fill="#333"/>
  <circle cx="162" cy="125" r="4" fill="#22BB22"/>
  <!-- Unit 5 — DI / misc -->
  <rect x="30" y="148" width="140" height="26" rx="3" fill="url(#unit)"/>
  <text x="55" y="159" font-family="Arial, sans-serif" font-size="7" fill="#AAA" opacity="0.9">SIGNAL PROC</text>
  <circle cx="36"  cy="158" r="7" fill="#1A1A1A"/><circle cx="36"  cy="158" r="5" fill="#333"/>
  <circle cx="52"  cy="158" r="7" fill="#1A1A1A"/><circle cx="52"  cy="158" r="5" fill="#333"/>
  <circle cx="68"  cy="158" r="7" fill="#1A1A1A"/><circle cx="68"  cy="158" r="5" fill="#333"/>
  <!-- Blanks -->
  <rect x="30" y="178" width="140" height="8" rx="3" fill="#111"/>
</svg>
