<svg xmlns="http://www.w3.org/2000/svg" viewBox="0 0 200 200">
  <defs>
    <radialGradient id="skin" cx="40%" cy="35%" r="60%">
      <stop offset="0%"   stop-color="#E8B888"/>
      <stop offset="100%" stop-color="#C08848"/>
    </radialGradient>
    <linearGradient id="shirt" x1="0.1" y1="0" x2="0.9" y2="1">
      <stop offset="0%"   stop-color="#4A6898"/>
      <stop offset="50%"  stop-color="#2A4878"/>
      <stop offset="100%" stop-color="#1A3060"/>
    </linearGradient>
    <linearGradient id="pants" x1="0" y1="0" x2="0" y2="1">
      <stop offset="0%"   stop-color="#2A3040"/>
      <stop offset="100%" stop-color="#0E1420"/>
    </linearGradient>
  </defs>
  <ellipse cx="100" cy="194" rx="34" ry="6" fill="#00000030"/>
  <!-- Legs -->
  <rect x="76" y="150" width="20" height="44" rx="8" fill="url(#pants)"/>
  <rect x="104" y="150" width="20" height="44" rx="8" fill="url(#pants)"/>
  <!-- Shoes -->
  <ellipse cx="86"  cy="192" rx="14" ry="6" fill="#1A1A1A"/>
  <ellipse cx="114" cy="192" rx="14" ry="6" fill="#1A1A1A"/>
  <!-- Torso / shirt -->
  <path d="M 60 106 Q 58 88 65 80 L 80 96 L 100 100 L 120 96 L 135 80 Q 142 88 140 106 L 140 158 Q 130 164 100 164 Q 70 164 60 158 Z" fill="url(#shirt)"/>
  <!-- Shirt highlight -->
  <path d="M 66 90 Q 68 100 68 116" stroke="#7090C0" stroke-width="3" fill="none" opacity="0.3" stroke-linecap="round"/>
  
  <!-- Left arm (fretting) -->
  <path d="M 62 108 Q 44 106 52 118 L 74 122 L 68 112 Q 58 110 62 108 Z" fill="url(#shirt)"/>
  <!-- Right arm (picking) -->
  <path d="M 138 108 Q 146 122 130 142 L 115 138 L 124 124 Q 130 122 126 120 Z" fill="url(#shirt)"/>
  
  <!-- Hands -->
  <ellipse cx="74"  cy="122" rx="7" ry="8" fill="url(#skin)"/>
  <ellipse cx="115" cy="138" rx="8" ry="7" fill="url(#skin)"/>
  <!-- Neck -->
  <rect x="90" y="72" width="20" height="28" rx="8" fill="url(#skin)"/>
  <!-- Head -->
  <ellipse cx="100" cy="60" rx="34" ry="38" fill="url(#skin)"/>
  <!-- Hair -->
  <path d="M 66 54 Q 68 22 100 18 Q 132 22 134 54 Q 126 38 100 36 Q 74 38 66 54 Z" fill="#2A1808"/>
  <!-- Eyes -->
  <ellipse cx="88"  cy="58" rx="5" ry="6" fill="#FFF"/>
  <ellipse cx="112" cy="58" rx="5" ry="6" fill="#FFF"/>
  <ellipse cx="88"  cy="60" rx="3" ry="4" fill="#5A3010"/>
  <ellipse cx="112" cy="60" rx="3" ry="4" fill="#5A3010"/>
  <circle  cx="88"  cy="60" r="2"  fill="#111"/>
  <circle  cx="112" cy="60" r="2"  fill="#111"/>
  <circle  cx="89"  cy="59" r="0.8" fill="#FFF"/>
  <circle  cx="113" cy="59" r="0.8" fill="#FFF"/>
  <!-- Mouth -->
  <path d="M 92 74 Q 100 80 108 74" stroke="#A06840" stroke-width="2.5" fill="none" stroke-linecap="round"/>
  <!-- Eyebrows -->
  <path d="M 83 51 Q 88 48 93 51" stroke="#2A1808" stroke-width="2.5" fill="none" stroke-linecap="round"/>
  <path d="M 107 51 Q 112 48 117 51" stroke="#2A1808" stroke-width="2.5" fill="none" stroke-linecap="round"/>
  <!-- Ears -->
  <ellipse cx="66"  cy="62" rx="7" ry="9" fill="url(#skin)"/>
  <ellipse cx="134" cy="62" rx="7" ry="9" fill="url(#skin)"/>
  <!-- Belt -->
  <rect x="60" y="154" width="80" height="8" rx="4" fill="#3A3020"/>
  <rect x="95" y="154" width="10" height="8" rx="2" fill="#888060"/>

  <!-- Guitar Strap -->
  <path d="M 64 104 C 75 105, 115 130, 134 146" stroke="#212121" stroke-width="5" fill="none" stroke-linecap="round" opacity="0.95"/>

  <!-- Electric Guitar -->
  <g transform="translate(100, 130) rotate(-22) translate(-50, -12)">
    <!-- Neck & Headstock -->
    <rect x="-30" y="7" width="90" height="6" fill="#D7CCC8" stroke="#3E2723" stroke-width="1"/>
    <rect x="-42" y="5" width="14" height="10" rx="2" fill="#8D6E63" stroke="#3E2723" stroke-width="1"/>
    <!-- Guitar Body -->
    <path d="M 40 0 C 40 -12, 65 -15, 80 -10 C 95 -5, 100 15, 85 28 C 75 35, 50 32, 40 25 C 32 18, 30 10, 40 0" fill="#E53935" stroke="#B71C1C" stroke-width="2.5"/>
    <path d="M 36 -3 L 48 2" stroke="#ECEFF1" stroke-width="1.5" stroke-linecap="round"/>
    <path d="M 38 27 L 48 22" stroke="#ECEFF1" stroke-width="1.5" stroke-linecap="round"/>
    <!-- Pickguard -->
    <path d="M 50 2 C 55 -2, 70 2, 75 12 C 72 20, 60 22, 50 18 Z" fill="#FFFFFF" stroke="#CFD8DC" stroke-width="0.8"/>
    <!-- Pickups -->
    <rect x="52" y="6" width="6" height="3" fill="#37474F"/>
    <rect x="60" y="6" width="6" height="3" fill="#37474F"/>
    <rect x="68" y="6" width="6" height="3" fill="#37474F"/>
    <!-- Bridge -->
    <rect x="76" y="5" width="8" height="10" fill="#B0BEC5" stroke="#78909C" stroke-width="0.8"/>
  </g>
</svg>
