<svg xmlns="http://www.w3.org/2000/svg" viewBox="0 0 200 200">
  <defs>
    <linearGradient id="desk" x1="0.1" y1="0" x2="0.9" y2="1">
      <stop offset="0%"   stop-color="#2A2E2A"/>
      <stop offset="100%" stop-color="#0C0E0C"/>
    </linearGradient>
    <linearGradient id="channel" x1="0" y1="0" x2="0" y2="1">
      <stop offset="0%"   stop-color="#363A36"/>
      <stop offset="100%" stop-color="#181A18"/>
    </linearGradient>
    <linearGradient id="fader" x1="0" y1="0" x2="0" y2="1">
      <stop offset="0%"   stop-color="#808080"/>
      <stop offset="100%" stop-color="#404040"/>
    </linearGradient>
  </defs>
  <ellipse cx="100" cy="194" rx="96" ry="6" fill="#00000030"/>
  <!-- Console body -->
  <rect x="4" y="112" width="192" height="78" rx="6" fill="url(#desk)"/>
  <path d="M 4 112 L 192 112 L 186 54 L 10 54 Z" fill="#242824"/>
  <rect x="10" y="34" width="180" height="24" rx="4" fill="#1E221E"/>
  <!-- Monitor bus meters in bridge (green theme) -->
  <rect x="70" y="36" width="60" height="18" rx="2" fill="#111"/>
  <rect x="72" y="38" width="22" height="5"  rx="1" fill="#0A2210" opacity="0.8"/>
  <rect x="72" y="38" width="14" height="5"  rx="1" fill="#20A040" opacity="0.9"/>
  <rect x="72" y="45" width="22" height="5"  rx="1" fill="#0A2210" opacity="0.8"/>
  <rect x="72" y="45" width="18" height="5"  rx="1" fill="#20A040" opacity="0.9"/>
  <rect x="98" y="38" width="22" height="5"  rx="1" fill="#0A2210" opacity="0.8"/>
  <rect x="98" y="38" width="16" height="5"  rx="1" fill="#20A040" opacity="0.9"/>
  <rect x="98" y="45" width="22" height="5"  rx="1" fill="#0A2210" opacity="0.8"/>
  <rect x="98" y="45" width="18" height="5"  rx="1" fill="#20A040" opacity="0.9"/>
  <!-- Monitor send channels -->
  <rect x="12" y="58" width="18" height="52" rx="2" fill="url(#channel)" opacity="0.9"/>
  <circle cx="21" cy="64" r="5" fill="#1A221A"/><circle cx="21" cy="64" r="3" fill="#40A060"/>
  <circle cx="21" cy="74" r="5" fill="#222"/><circle cx="21" cy="74" r="3" fill="#555"/>
  <line x1="21" y1="84" x2="21" y2="106" stroke="#2A342A" stroke-width="3" stroke-linecap="round"/>
  <rect x="18" y="90" width="6" height="10" rx="2" fill="url(#fader)"/>
  <rect x="34" y="58" width="18" height="52" rx="2" fill="url(#channel)" opacity="0.9"/>
  <circle cx="43" cy="64" r="5" fill="#1A221A"/><circle cx="43" cy="64" r="3" fill="#40A060"/>
  <circle cx="43" cy="74" r="5" fill="#222"/><circle cx="43" cy="74" r="3" fill="#555"/>
  <line x1="43" y1="84" x2="43" y2="106" stroke="#2A342A" stroke-width="3" stroke-linecap="round"/>
  <rect x="40" y="96" width="6" height="10" rx="2" fill="url(#fader)"/>
  <rect x="56" y="58" width="18" height="52" rx="2" fill="url(#channel)" opacity="0.9"/>
  <circle cx="65" cy="64" r="5" fill="#1A221A"/><circle cx="65" cy="64" r="3" fill="#40A060"/>
  <circle cx="65" cy="74" r="5" fill="#222"/><circle cx="65" cy="74" r="3" fill="#555"/>
  <line x1="65" y1="84" x2="65" y2="106" stroke="#2A342A" stroke-width="3" stroke-linecap="round"/>
  <rect x="62" y="86" width="6" height="10" rx="2" fill="url(#fader)"/>
  <rect x="78" y="58" width="18" height="52" rx="2" fill="url(#channel)" opacity="0.9"/>
  <circle cx="87" cy="64" r="5" fill="#1A221A"/><circle cx="87" cy="64" r="3" fill="#40A060"/>
  <circle cx="87" cy="74" r="5" fill="#222"/><circle cx="87" cy="74" r="3" fill="#555"/>
  <line x1="87" y1="84" x2="87" y2="106" stroke="#2A342A" stroke-width="3" stroke-linecap="round"/>
  <rect x="84" y="92" width="6" height="10" rx="2" fill="url(#fader)"/>
  <rect x="100" y="58" width="18" height="52" rx="2" fill="url(#channel)" opacity="0.9"/>
  <circle cx="109" cy="64" r="5" fill="#1A221A"/><circle cx="109" cy="64" r="3" fill="#40A060"/>
  <circle cx="109" cy="74" r="5" fill="#222"/><circle cx="109" cy="74" r="3" fill="#555"/>
  <line x1="109" y1="84" x2="109" y2="106" stroke="#2A342A" stroke-width="3" stroke-linecap="round"/>
  <rect x="106" y="88" width="6" height="10" rx="2" fill="url(#fader)"/>
  <rect x="122" y="58" width="18" height="52" rx="2" fill="url(#channel)" opacity="0.9"/>
  <circle cx="131" cy="64" r="5" fill="#1A221A"/><circle cx="131" cy="64" r="3" fill="#40A060"/>
  <circle cx="131" cy="74" r="5" fill="#222"/><circle cx="131" cy="74" r="3" fill="#555"/>
  <line x1="131" y1="84" x2="131" y2="106" stroke="#2A342A" stroke-width="3" stroke-linecap="round"/>
  <rect x="128" y="84" width="6" height="10" rx="2" fill="url(#fader)"/>
  <!-- Monitor master section -->
  <rect x="148" y="54" width="44" height="60" rx="3" fill="#1A1E1A"/>
  <text x="170" y="66" text-anchor="middle" font-family="Arial, sans-serif" font-size="7" fill="#80C080">MONITORS</text>
  <circle cx="158" cy="77" r="7" fill="#1A221A"/><circle cx="158" cy="77" r="5" fill="#40A060"/>
  <circle cx="174" cy="77" r="7" fill="#222"/><circle cx="174" cy="77" r="5" fill="#555"/>
  <line x1="170" y1="88" x2="170" y2="110" stroke="#2A342A" stroke-width="4" stroke-linecap="round"/>
  <rect x="167" y="94" width="6" height="10" rx="2" fill="#DDD"/>
  <rect x="4" y="118" width="192" height="12" rx="3" fill="#181C18" opacity="0.7"/>
</svg>
