<svg xmlns="http://www.w3.org/2000/svg" viewBox="0 0 200 200">
  <defs>
    <linearGradient id="body" x1="0.1" y1="0" x2="0.9" y2="1">
      <stop offset="0%"   stop-color="#2A2A2A"/>
      <stop offset="100%" stop-color="#0A0A0A"/>
    </linearGradient>
    <radialGradient id="jack" cx="40%" cy="35%" r="60%">
      <stop offset="0%"   stop-color="#777"/>
      <stop offset="100%" stop-color="#2A2A2A"/>
    </radialGradient>
  </defs>
  <ellipse cx="100" cy="190" rx="90" ry="10" fill="#00000028"/>
  <!-- Rack unit body -->
  <rect x="6" y="68" width="188" height="104" rx="6" fill="url(#body)"/>
  <!-- Rack ears -->
  <rect x="6"   y="68" width="20" height="104" rx="4" fill="#1E1E1E"/>
  <rect x="174" y="68" width="20" height="104" rx="4" fill="#1E1E1E"/>
  <circle cx="16"  cy="84"  r="5" fill="#2A2A2A"/><circle cx="16"  cy="84"  r="3" fill="#444"/>
  <circle cx="16"  cy="156" r="5" fill="#2A2A2A"/><circle cx="16"  cy="156" r="3" fill="#444"/>
  <circle cx="184" cy="84"  r="5" fill="#2A2A2A"/><circle cx="184" cy="84"  r="3" fill="#444"/>
  <circle cx="184" cy="156" r="5" fill="#2A2A2A"/><circle cx="184" cy="156" r="3" fill="#444"/>
  <!-- Front panel -->
  <rect x="28" y="74" width="144" height="96" rx="4" fill="#222"/>
  <!-- Row labels -->
  <text x="36" y="88" font-family="Arial, sans-serif" font-size="7" fill="#666">IN</text>
  <text x="36" y="136" font-family="Arial, sans-serif" font-size="7" fill="#666">OUT</text>
  <!-- Top row jacks (16 jacks — 1/4" TRS) -->
  <circle cx="52"  cy="96" r="7" fill="#1A1A1A"/>
  <circle cx="52"  cy="96" r="5" fill="url(#jack)"/>
  <circle cx="52"  cy="96" r="2" fill="#0A0A0A"/>
  <circle cx="62"  cy="96" r="7" fill="#1A1A1A"/>
  <circle cx="62"  cy="96" r="5" fill="url(#jack)"/>
  <circle cx="62"  cy="96" r="2" fill="#0A0A0A"/>
  <circle cx="72"  cy="96" r="7" fill="#1A1A1A"/>
  <circle cx="72"  cy="96" r="5" fill="url(#jack)"/>
  <circle cx="72"  cy="96" r="2" fill="#0A0A0A"/>
  <circle cx="82"  cy="96" r="7" fill="#1A1A1A"/>
  <circle cx="82"  cy="96" r="5" fill="url(#jack)"/>
  <circle cx="82"  cy="96" r="2" fill="#0A0A0A"/>
  <circle cx="92"  cy="96" r="7" fill="#1A1A1A"/>
  <circle cx="92"  cy="96" r="5" fill="url(#jack)"/>
  <circle cx="92"  cy="96" r="2" fill="#0A0A0A"/>
  <circle cx="102" cy="96" r="7" fill="#1A1A1A"/>
  <circle cx="102" cy="96" r="5" fill="url(#jack)"/>
  <circle cx="102" cy="96" r="2" fill="#0A0A0A"/>
  <circle cx="112" cy="96" r="7" fill="#1A1A1A"/>
  <circle cx="112" cy="96" r="5" fill="url(#jack)"/>
  <circle cx="112" cy="96" r="2" fill="#0A0A0A"/>
  <circle cx="122" cy="96" r="7" fill="#1A1A1A"/>
  <circle cx="122" cy="96" r="5" fill="url(#jack)"/>
  <circle cx="122" cy="96" r="2" fill="#0A0A0A"/>
  <circle cx="132" cy="96" r="7" fill="#1A1A1A"/>
  <circle cx="132" cy="96" r="5" fill="url(#jack)"/>
  <circle cx="132" cy="96" r="2" fill="#0A0A0A"/>
  <circle cx="142" cy="96" r="7" fill="#1A1A1A"/>
  <circle cx="142" cy="96" r="5" fill="url(#jack)"/>
  <circle cx="142" cy="96" r="2" fill="#0A0A0A"/>
  <circle cx="152" cy="96" r="7" fill="#1A1A1A"/>
  <circle cx="152" cy="96" r="5" fill="url(#jack)"/>
  <circle cx="152" cy="96" r="2" fill="#0A0A0A"/>
  <circle cx="162" cy="96" r="7" fill="#1A1A1A"/>
  <circle cx="162" cy="96" r="5" fill="url(#jack)"/>
  <circle cx="162" cy="96" r="2" fill="#0A0A0A"/>
  <!-- Number labels top row -->
  <text x="52"  y="110" text-anchor="middle" font-family="Arial, sans-serif" font-size="6" fill="#555">1</text>
  <text x="62"  y="110" text-anchor="middle" font-family="Arial, sans-serif" font-size="6" fill="#555">2</text>
  <text x="72"  y="110" text-anchor="middle" font-family="Arial, sans-serif" font-size="6" fill="#555">3</text>
  <text x="82"  y="110" text-anchor="middle" font-family="Arial, sans-serif" font-size="6" fill="#555">4</text>
  <text x="92"  y="110" text-anchor="middle" font-family="Arial, sans-serif" font-size="6" fill="#555">5</text>
  <text x="102" y="110" text-anchor="middle" font-family="Arial, sans-serif" font-size="6" fill="#555">6</text>
  <text x="112" y="110" text-anchor="middle" font-family="Arial, sans-serif" font-size="6" fill="#555">7</text>
  <text x="122" y="110" text-anchor="middle" font-family="Arial, sans-serif" font-size="6" fill="#555">8</text>
  <!-- Separator line -->
  <line x1="28" y1="116" x2="172" y2="116" stroke="#333" stroke-width="1.5"/>
  <!-- Bottom row jacks -->
  <circle cx="52"  cy="128" r="7" fill="#1A1A1A"/>
  <circle cx="52"  cy="128" r="5" fill="url(#jack)"/>
  <circle cx="52"  cy="128" r="2" fill="#0A0A0A"/>
  <circle cx="62"  cy="128" r="7" fill="#1A1A1A"/>
  <circle cx="62"  cy="128" r="5" fill="url(#jack)"/>
  <circle cx="62"  cy="128" r="2" fill="#0A0A0A"/>
  <circle cx="72"  cy="128" r="7" fill="#1A1A1A"/>
  <circle cx="72"  cy="128" r="5" fill="url(#jack)"/>
  <circle cx="72"  cy="128" r="2" fill="#0A0A0A"/>
  <circle cx="82"  cy="128" r="7" fill="#1A1A1A"/>
  <circle cx="82"  cy="128" r="5" fill="url(#jack)"/>
  <circle cx="82"  cy="128" r="2" fill="#0A0A0A"/>
  <circle cx="92"  cy="128" r="7" fill="#1A1A1A"/>
  <circle cx="92"  cy="128" r="5" fill="url(#jack)"/>
  <circle cx="92"  cy="128" r="2" fill="#0A0A0A"/>
  <circle cx="102" cy="128" r="7" fill="#1A1A1A"/>
  <circle cx="102" cy="128" r="5" fill="url(#jack)"/>
  <circle cx="102" cy="128" r="2" fill="#0A0A0A"/>
  <circle cx="112" cy="128" r="7" fill="#1A1A1A"/>
  <circle cx="112" cy="128" r="5" fill="url(#jack)"/>
  <circle cx="112" cy="128" r="2" fill="#0A0A0A"/>
  <circle cx="122" cy="128" r="7" fill="#1A1A1A"/>
  <circle cx="122" cy="128" r="5" fill="url(#jack)"/>
  <circle cx="122" cy="128" r="2" fill="#0A0A0A"/>
  <circle cx="132" cy="128" r="7" fill="#1A1A1A"/>
  <circle cx="132" cy="128" r="5" fill="url(#jack)"/>
  <circle cx="132" cy="128" r="2" fill="#0A0A0A"/>
  <circle cx="142" cy="128" r="7" fill="#1A1A1A"/>
  <circle cx="142" cy="128" r="5" fill="url(#jack)"/>
  <circle cx="142" cy="128" r="2" fill="#0A0A0A"/>
  <circle cx="152" cy="128" r="7" fill="#1A1A1A"/>
  <circle cx="152" cy="128" r="5" fill="url(#jack)"/>
  <circle cx="152" cy="128" r="2" fill="#0A0A0A"/>
  <circle cx="162" cy="128" r="7" fill="#1A1A1A"/>
  <circle cx="162" cy="128" r="5" fill="url(#jack)"/>
  <circle cx="162" cy="128" r="2" fill="#0A0A0A"/>
  <!-- Some patch cables plugged in (visual) -->
  <path d="M 52 103 Q 52 116 62 116 Q 72 116 72 128" stroke="#CC4444" stroke-width="2" fill="none" stroke-linecap="round" opacity="0.7"/>
  <path d="M 82 103 Q 82 116 92 116 Q 102 116 102 128" stroke="#44AACC" stroke-width="2" fill="none" stroke-linecap="round" opacity="0.7"/>
  <path d="M 112 103 Q 112 116 122 116 Q 132 116 132 128" stroke="#AACC44" stroke-width="2" fill="none" stroke-linecap="round" opacity="0.7"/>
  <!-- Title at bottom -->
  <text x="100" y="158" text-anchor="middle" font-family="Arial, sans-serif" font-size="8" fill="#555">PATCH BAY  48pt</text>
</svg>
