<svg xmlns="http://www.w3.org/2000/svg" viewBox="0 0 200 200">
  <defs>
    <radialGradient id="skin" cx="40%" cy="35%" r="60%">
      <stop offset="0%"   stop-color="#E8B888"/>
      <stop offset="100%" stop-color="#C08848"/>
    </radialGradient>
    <linearGradient id="shirt" x1="0.1" y1="0" x2="0.9" y2="1">
      <stop offset="0%"   stop-color="#4A6898"/>
      <stop offset="50%"  stop-color="#2A4878"/>
      <stop offset="100%" stop-color="#1A3060"/>
    </linearGradient>
    <linearGradient id="pants" x1="0" y1="0" x2="0" y2="1">
      <stop offset="0%"   stop-color="#2A3040"/>
      <stop offset="100%" stop-color="#0E1420"/>
    </linearGradient>
  </defs>
  <ellipse cx="100" cy="194" rx="34" ry="6" fill="#00000030"/>
  <!-- Legs -->
  <rect x="76" y="150" width="20" height="44" rx="8" fill="url(#pants)"/>
  <rect x="104" y="150" width="20" height="44" rx="8" fill="url(#pants)"/>
  <!-- Shoes -->
  <ellipse cx="86"  cy="192" rx="14" ry="6" fill="#1A1A1A"/>
  <ellipse cx="114" cy="192" rx="14" ry="6" fill="#1A1A1A"/>
  <!-- Torso / shirt -->
  <path d="M 60 106 Q 58 88 65 80 L 80 96 L 100 100 L 120 96 L 135 80 Q 142 88 140 106 L 140 158 Q 130 164 100 164 Q 70 164 60 158 Z" fill="url(#shirt)"/>
  <!-- Shirt highlight -->
  <path d="M 66 90 Q 68 100 68 116" stroke="#7090C0" stroke-width="3" fill="none" opacity="0.3" stroke-linecap="round"/>
  
  <!-- Left arm (holding upper sax) -->
  <path d="M 62 108 Q 48 114 62 128 L 78 126 L 70 116 Q 60 114 62 108 Z" fill="url(#shirt)"/>
  <!-- Right arm (holding lower sax) -->
  <path d="M 138 108 Q 146 122 130 142 L 115 138 L 124 124 Q 130 122 126 120 Z" fill="url(#shirt)"/>
  
  <!-- Hands -->
  <ellipse cx="78"  cy="126" rx="7" ry="8" fill="url(#skin)"/>
  <ellipse cx="115" cy="138" rx="8" ry="7" fill="url(#skin)"/>
  <!-- Neck -->
  <rect x="90" y="72" width="20" height="28" rx="8" fill="url(#skin)"/>
  <!-- Head (tilted slightly left towards instrument mouthpiece) -->
  <ellipse cx="100" cy="60" rx="34" ry="38" fill="url(#skin)"/>
  <!-- Hair -->
  <path d="M 66 54 Q 68 22 100 18 Q 132 22 134 54 Q 126 38 100 36 Q 74 38 66 54 Z" fill="#2A1808"/>
  <!-- Eyes -->
  <ellipse cx="88"  cy="58" rx="5" ry="6" fill="#FFF"/>
  <ellipse cx="112" cy="58" rx="5" ry="6" fill="#FFF"/>
  <ellipse cx="88"  cy="60" rx="3" ry="4" fill="#5A3010"/>
  <ellipse cx="112" cy="60" rx="3" ry="4" fill="#5A3010"/>
  <circle  cx="88"  cy="60" r="2"  fill="#111"/>
  <circle  cx="112" cy="60" r="2"  fill="#111"/>
  <!-- Mouth (holding sax mouthpiece) -->
  <ellipse cx="100" cy="74" rx="4" ry="2.5" fill="#1A1A1A"/>
  <!-- Eyebrows -->
  <path d="M 83 51 Q 88 48 93 51" stroke="#2A1808" stroke-width="2.5" fill="none" stroke-linecap="round"/>
  <path d="M 107 51 Q 112 48 117 51" stroke="#2A1808" stroke-width="2.5" fill="none" stroke-linecap="round"/>
  <!-- Ears -->
  <ellipse cx="66"  cy="62" rx="7" ry="9" fill="url(#skin)"/>
  <ellipse cx="134" cy="62" rx="7" ry="9" fill="url(#skin)"/>
  <!-- Belt -->
  <rect x="60" y="154" width="80" height="8" rx="4" fill="#3A3020"/>
  <rect x="95" y="154" width="10" height="8" rx="2" fill="#888060"/>

  <!-- Saxophone (Gold/Brass) -->
  <g transform="translate(72, 70)">
    <!-- Mouthpiece -->
    <path d="M 28 4 L 18 12" stroke="#212121" stroke-width="3" stroke-linecap="round"/>
    <!-- Neck -->
    <path d="M 20 10 Q 15 15 15 28" fill="none" stroke="#FFD54F" stroke-width="4" stroke-linecap="round"/>
    <!-- Body tube -->
    <path d="M 15 28 L 22 84" fill="none" stroke="#FFD54F" stroke-width="7" stroke-linecap="round"/>
    <path d="M 15 28 L 22 84" fill="none" stroke="#FFCA28" stroke-width="4" stroke-linecap="round"/>
    <!-- Bow (bottom curved section) -->
    <path d="M 22 84 C 24 96, 46 96, 48 76" fill="none" stroke="#FFD54F" stroke-width="8" stroke-linecap="round"/>
    <path d="M 22 84 C 24 96, 46 96, 48 76" fill="none" stroke="#FFCA28" stroke-width="5" stroke-linecap="round"/>
    <!-- Bell (flared end) -->
    <path d="M 48 76 L 56 50" fill="none" stroke="#FFD54F" stroke-width="10" stroke-linecap="round"/>
    <!-- Inside of Bell (dark gold) -->
    <ellipse cx="54" cy="50" rx="5" ry="2.5" transform="rotate(-15, 54, 50)" fill="#FF8F00" stroke="#FFD54F" stroke-width="1"/>
    
    <!-- Detail keys -->
    <circle cx="18" cy="40" r="2.5" fill="#FFE082" stroke="#FFB300" stroke-width="0.8"/>
    <circle cx="19.5" cy="52" r="2.5" fill="#FFE082" stroke="#FFB300" stroke-width="0.8"/>
    <circle cx="21" cy="64" r="2.5" fill="#FFE082" stroke="#FFB300" stroke-width="0.8"/>
    <!-- Key Guard rod -->
    <line x1="24" y1="36" x2="27" y2="72" stroke="#FF8F00" stroke-width="1.2"/>
  </g>
</svg>
