<svg xmlns="http://www.w3.org/2000/svg" viewBox="0 0 200 200">
  <defs>
    <linearGradient id="body" x1="0.1" y1="0" x2="0.9" y2="1">
      <stop offset="0%"   stop-color="#2A2A2A"/>
      <stop offset="100%" stop-color="#0A0A0A"/>
    </linearGradient>
    <linearGradient id="panel" x1="0" y1="0" x2="0" y2="1">
      <stop offset="0%"   stop-color="#3E3040"/>
      <stop offset="100%" stop-color="#1A1220"/>
    </linearGradient>
    <linearGradient id="wkey" x1="0" y1="0" x2="0" y2="1">
      <stop offset="0%"   stop-color="#F0F0F0"/>
      <stop offset="100%" stop-color="#D0D0D0"/>
    </linearGradient>
  </defs>
  <ellipse cx="100" cy="194" rx="96" ry="6" fill="#00000030"/>
  <!-- Body -->
  <rect x="4" y="40" width="192" height="150" rx="8" fill="url(#body)"/>
  <!-- Control panel -->
  <rect x="4" y="40" width="192" height="96" rx="8" fill="url(#panel)"/>
  <!-- VCO/filter section - knobs cluster -->
  <circle cx="30"  cy="60" r="9" fill="#222"/><circle cx="30"  cy="60" r="6" fill="#555"/>
  <circle cx="52"  cy="60" r="9" fill="#222"/><circle cx="52"  cy="60" r="6" fill="#555"/>
  <circle cx="74"  cy="60" r="9" fill="#222"/><circle cx="74"  cy="60" r="6" fill="#7050A0"/>
  <circle cx="30"  cy="82" r="9" fill="#222"/><circle cx="30"  cy="82" r="6" fill="#555"/>
  <circle cx="52"  cy="82" r="9" fill="#222"/><circle cx="52"  cy="82" r="6" fill="#555"/>
  <circle cx="74"  cy="82" r="9" fill="#222"/><circle cx="74"  cy="82" r="6" fill="#A04020"/>
  <!-- Display/sequencer -->
  <rect x="92" y="48" width="72" height="40" rx="4" fill="#111"/>
  <rect x="94" y="50" width="68" height="36" rx="3" fill="#0A1A2A"/>
  <!-- Oscillator waveform display -->
  <path d="M 98 72 L 108 58 L 116 72 L 126 58 L 134 72 L 144 58 L 152 72 L 158 72" stroke="#4488FF" stroke-width="2" fill="none" stroke-linecap="round" stroke-linejoin="round"/>
  <!-- Faders section -->
  <line x1="176" y1="52" x2="176" y2="122" stroke="#444" stroke-width="3" stroke-linecap="round"/>
  <rect x="172" y="66" width="8" height="12" rx="3" fill="#7070C0"/>
  <line x1="188" y1="52" x2="188" y2="122" stroke="#444" stroke-width="3" stroke-linecap="round"/>
  <rect x="184" y="82" width="8" height="12" rx="3" fill="#7070C0"/>
  <!-- Patch points row -->
  <rect x="8" y="94" width="180" height="18" rx="3" fill="#111" opacity="0.8"/>
  <circle cx="20"  cy="103" r="4" fill="#333"/><circle cx="20"  cy="103" r="2" fill="#555"/>
  <circle cx="34"  cy="103" r="4" fill="#333"/><circle cx="34"  cy="103" r="2" fill="#555"/>
  <circle cx="48"  cy="103" r="4" fill="#333"/><circle cx="48"  cy="103" r="2" fill="#FF8844"/>
  <circle cx="62"  cy="103" r="4" fill="#333"/><circle cx="62"  cy="103" r="2" fill="#555"/>
  <circle cx="76"  cy="103" r="4" fill="#333"/><circle cx="76"  cy="103" r="2" fill="#44AAFF"/>
  <circle cx="90"  cy="103" r="4" fill="#333"/><circle cx="90"  cy="103" r="2" fill="#555"/>
  <circle cx="104" cy="103" r="4" fill="#333"/><circle cx="104" cy="103" r="2" fill="#555"/>
  <circle cx="118" cy="103" r="4" fill="#333"/><circle cx="118" cy="103" r="2" fill="#FF8844"/>
  <circle cx="132" cy="103" r="4" fill="#333"/><circle cx="132" cy="103" r="2" fill="#555"/>
  <circle cx="146" cy="103" r="4" fill="#333"/><circle cx="146" cy="103" r="2" fill="#555"/>
  <!-- White keys -->
  <rect x="8"   y="138" width="12" height="44" rx="2" fill="url(#wkey)"/>
  <rect x="22"  y="138" width="12" height="44" rx="2" fill="url(#wkey)"/>
  <rect x="36"  y="138" width="12" height="44" rx="2" fill="url(#wkey)"/>
  <rect x="50"  y="138" width="12" height="44" rx="2" fill="url(#wkey)"/>
  <rect x="64"  y="138" width="12" height="44" rx="2" fill="url(#wkey)"/>
  <rect x="78"  y="138" width="12" height="44" rx="2" fill="url(#wkey)"/>
  <rect x="92"  y="138" width="12" height="44" rx="2" fill="url(#wkey)"/>
  <rect x="106" y="138" width="12" height="44" rx="2" fill="url(#wkey)"/>
  <rect x="120" y="138" width="12" height="44" rx="2" fill="url(#wkey)"/>
  <rect x="134" y="138" width="12" height="44" rx="2" fill="url(#wkey)"/>
  <rect x="148" y="138" width="12" height="44" rx="2" fill="url(#wkey)"/>
  <rect x="162" y="138" width="12" height="44" rx="2" fill="url(#wkey)"/>
  <rect x="176" y="138" width="12" height="44" rx="2" fill="url(#wkey)"/>
  <!-- Black keys -->
  <rect x="18"  y="138" width="8" height="28" rx="2" fill="#111"/>
  <rect x="32"  y="138" width="8" height="28" rx="2" fill="#111"/>
  <rect x="60"  y="138" width="8" height="28" rx="2" fill="#111"/>
  <rect x="74"  y="138" width="8" height="28" rx="2" fill="#111"/>
  <rect x="88"  y="138" width="8" height="28" rx="2" fill="#111"/>
  <rect x="116" y="138" width="8" height="28" rx="2" fill="#111"/>
  <rect x="130" y="138" width="8" height="28" rx="2" fill="#111"/>
  <rect x="158" y="138" width="8" height="28" rx="2" fill="#111"/>
  <rect x="172" y="138" width="8" height="28" rx="2" fill="#111"/>
</svg>
