<svg xmlns="http://www.w3.org/2000/svg" viewBox="0 0 200 200">
  <defs>
    <radialGradient id="skin" cx="40%" cy="35%" r="60%">
      <stop offset="0%"   stop-color="#E8B888"/>
      <stop offset="100%" stop-color="#C08848"/>
    </radialGradient>
    <linearGradient id="shirt" x1="0.1" y1="0" x2="0.9" y2="1">
      <stop offset="0%"   stop-color="#4A6898"/>
      <stop offset="50%"  stop-color="#2A4878"/>
      <stop offset="100%" stop-color="#1A3060"/>
    </linearGradient>
    <linearGradient id="pants" x1="0" y1="0" x2="0" y2="1">
      <stop offset="0%"   stop-color="#2A3040"/>
      <stop offset="100%" stop-color="#0E1420"/>
    </linearGradient>
  </defs>
  <ellipse cx="100" cy="194" rx="34" ry="6" fill="#00000030"/>
  <!-- Legs -->
  <rect x="76" y="150" width="20" height="44" rx="8" fill="url(#pants)"/>
  <rect x="104" y="150" width="20" height="44" rx="8" fill="url(#pants)"/>
  <!-- Shoes -->
  <ellipse cx="86"  cy="192" rx="14" ry="6" fill="#1A1A1A"/>
  <ellipse cx="114" cy="192" rx="14" ry="6" fill="#1A1A1A"/>
  <!-- Torso / shirt -->
  <path d="M 60 106 Q 58 88 65 80 L 80 96 L 100 100 L 120 96 L 135 80 Q 142 88 140 106 L 140 158 Q 130 164 100 164 Q 70 164 60 158 Z" fill="url(#shirt)"/>
  <!-- Shirt highlight -->
  <path d="M 66 90 Q 68 100 68 116" stroke="#7090C0" stroke-width="3" fill="none" opacity="0.3" stroke-linecap="round"/>
  <!-- Left arm -->
  <path d="M 62 108 Q 48 118 46 135 Q 46 145 52 148 Q 60 152 64 140 Q 66 128 72 118 Z" fill="url(#shirt)"/>
  <!-- Right arm -->
  <path d="M 138 108 Q 146 122 136 142 Q 130 152 122 148 Q 116 142 124 130 Q 128 122 126 120 Z" fill="url(#shirt)"/>
  <!-- Hands -->
  <ellipse cx="50"  cy="144" rx="8" ry="9" fill="url(#skin)"/>
  <ellipse cx="120" cy="144" rx="8" ry="9" fill="url(#skin)"/>
  <!-- Neck -->
  <rect x="90" y="72" width="20" height="28" rx="8" fill="url(#skin)"/>
  <!-- Head -->
  <ellipse cx="100" cy="60" rx="34" ry="38" fill="url(#skin)"/>
  <!-- Hair -->
  <path d="M 66 54 Q 68 22 100 18 Q 132 22 134 54 Q 126 38 100 36 Q 74 38 66 54 Z" fill="#2A1808"/>
  <!-- Eyes -->
  <ellipse cx="88"  cy="58" rx="5" ry="6" fill="#FFF"/>
  <ellipse cx="112" cy="58" rx="5" ry="6" fill="#FFF"/>
  <ellipse cx="88"  cy="60" rx="3" ry="4" fill="#5A3010"/>
  <ellipse cx="112" cy="60" rx="3" ry="4" fill="#5A3010"/>
  <circle  cx="88"  cy="60" r="2"  fill="#111"/>
  <circle  cx="112" cy="60" r="2"  fill="#111"/>
  <!-- Mouth -->
  <ellipse cx="100" cy="74" rx="5" ry="3" fill="#602010" stroke="#A06840" stroke-width="1.5"/>
  <!-- Eyebrows -->
  <path d="M 83 51 Q 88 48 93 51" stroke="#2A1808" stroke-width="2.5" fill="none" stroke-linecap="round"/>
  <path d="M 107 51 Q 112 48 117 51" stroke="#2A1808" stroke-width="2.5" fill="none" stroke-linecap="round"/>
  <!-- Ears -->
  <ellipse cx="66"  cy="62" rx="7" ry="9" fill="url(#skin)"/>
  <ellipse cx="134" cy="62" rx="7" ry="9" fill="url(#skin)"/>
  <!-- Belt -->
  <rect x="60" y="154" width="80" height="8" rx="4" fill="#3A3020"/>
  <rect x="95" y="154" width="10" height="8" rx="2" fill="#888060"/>

  <!-- Microphone Stand Overlay -->
  <ellipse cx="100" cy="190" rx="24" ry="5" fill="#263238" stroke="#37474F" stroke-width="1.5"/>
  <line x1="100" y1="190" x2="100" y2="78" stroke="#37474F" stroke-width="3.5" stroke-linecap="round"/>
  <line x1="100" y1="130" x2="100" y2="78" stroke="#78909C" stroke-width="2.5" stroke-linecap="round"/>
  <line x1="100" y1="78" x2="100" y2="68" stroke="#37474F" stroke-width="3"/>
  <rect x="97" y="62" width="6" height="10" rx="2.5" fill="#90A4AE" stroke="#37474F" stroke-width="1.5"/>
  <circle cx="100" cy="59" r="4.5" fill="#B0BEC5" stroke="#37474F" stroke-width="1"/>
</svg>
